<?xml version="1.0" standalone="no"?>
<svg xmlns="http://www.w3.org/2000/svg" viewBox="0 0 183.2 53" width="183.2" height="53"><rect fill="none" stroke="#ff571f" stroke-width="3" width="180.2" height="50" x="1.5" y="1.5"></rect><path fill="#2a2829" fill-rule="nonzero" d="M5.62 18.67Q2.52 18.67 1.26 15.86Q0 13.06 0 8.95L0 8.95Q0 6.74 0.58 4.70Q1.15 2.66 2.44 1.33Q3.72 0 5.69 0L5.69 0Q7.20 0 8.34 0.94Q9.48 1.87 10.09 3.37Q10.70 4.87 10.70 6.50L10.70 6.50L7.30 6.67Q7.30 5.59 6.94 4.21Q6.58 2.83 5.50 2.83L5.50 2.83Q4.37 2.83 3.94 4.63Q3.50 6.43 3.50 8.95L3.50 8.95Q3.50 12.07 3.98 13.96Q4.46 15.84 5.83 15.84L5.83 15.84Q6.79 15.84 7.20 14.70Q7.61 13.56 7.73 11.93L7.73 11.93L10.73 12.22Q10.73 13.94 10.15 15.42Q9.58 16.90 8.42 17.78Q7.27 18.67 5.62 18.67L5.62 18.67ZM17.42 18.65Q15.00 18.65 13.69 16.73Q12.38 14.81 12.38 11.62L12.38 11.62Q12.38 8.45 13.68 6.55Q14.98 4.66 17.42 4.66L17.42 4.66Q19.85 4.66 21.18 6.55Q22.51 8.45 22.51 11.62L22.51 11.62Q22.51 14.78 21.18 16.72Q19.85 18.65 17.42 18.65L17.42 18.65ZM17.42 16.15Q18.50 16.15 18.82 14.83Q19.13 13.51 19.13 11.59L19.13 11.59Q19.13 9.67 18.82 8.35Q18.50 7.03 17.42 7.03L17.42 7.03Q16.34 7.03 16.06 8.28Q15.77 9.53 15.77 11.33L15.77 11.33Q15.77 13.54 16.06 14.84Q16.34 16.15 17.42 16.15L17.42 16.15ZM24.79 18.48L24.79 5.11L28.15 4.82L28.15 6.55Q29.18 5.64 30.18 5.15Q31.18 4.66 32.02 4.66L32.02 4.66Q33.29 4.66 34.09 5.58Q34.90 6.50 34.90 8.06L34.90 8.06L34.90 18.19L31.54 18.48L31.54 9.34Q31.54 7.54 30.31 7.54L30.31 7.54Q29.90 7.54 29.41 7.78Q28.92 8.02 28.15 8.47L28.15 8.47L28.15 18.19L24.79 18.48ZM43.22 18.34L40.13 18.34L36.36 5.11L40.39 4.82L42.10 13.46L44.04 5.26L47.09 4.97L43.22 18.34ZM52.94 18.65Q50.54 18.65 49.27 16.74Q48.00 14.83 48.00 11.66L48.00 11.66Q48.00 8.45 49.30 6.55Q50.59 4.66 53.06 4.66L53.06 4.66Q55.42 4.66 56.66 6.55Q57.91 8.45 57.91 11.66L57.91 11.66Q57.91 11.86 57.84 11.94Q57.77 12.02 57.77 12.05L57.77 12.05L51.36 12.05Q51.36 13.61 51.77 14.89Q52.18 16.18 53.02 16.18L53.02 16.18Q53.95 16.18 54.41 15.10Q54.86 14.02 54.89 13.97L54.89 13.97L57.43 14.93Q56.93 16.66 55.82 17.65Q54.72 18.65 52.94 18.65L52.94 18.65ZM51.36 10.10L54.60 10.10Q54.60 8.66 54.22 7.82Q53.83 6.98 53.02 6.98L53.02 6.98Q52.61 6.98 52.22 7.39Q51.84 7.80 51.60 8.52Q51.36 9.24 51.36 10.10L51.36 10.10ZM59.95 18.48L59.95 5.11L63.31 4.82L63.31 6.55Q64.34 5.64 65.34 5.15Q66.34 4.66 67.18 4.66L67.18 4.66Q68.45 4.66 69.25 5.58Q70.06 6.50 70.06 8.06L70.06 8.06L70.06 18.19L66.70 18.48L66.70 9.34Q66.70 7.54 65.47 7.54L65.47 7.54Q65.06 7.54 64.57 7.78Q64.08 8.02 63.31 8.47L63.31 8.47L63.31 18.19L59.95 18.48ZM77.50 18.60Q75.86 18.60 74.74 17.77Q73.61 16.94 73.61 14.83L73.61 14.83L73.61 7.37L71.74 7.37L71.88 4.82L73.70 4.82L74.04 1.90L76.97 1.49L76.97 4.82L79.75 4.82L79.61 7.37L76.99 7.37L76.99 14.81Q76.99 15.53 77.35 15.84Q77.71 16.15 78.41 16.15L78.41 16.15Q78.79 16.15 79.70 16.01L79.70 16.01L79.70 18.34Q79.61 18.36 78.95 18.48Q78.29 18.60 77.50 18.60L77.50 18.60ZM84.43 18.65Q83.11 18.65 82.27 17.72Q81.43 16.80 81.43 15.24L81.43 15.24L81.43 5.11L84.79 4.82L84.79 13.87Q84.79 14.83 85.10 15.25Q85.42 15.67 86.06 15.67L86.06 15.67Q86.57 15.67 87.14 15.42Q87.72 15.17 88.18 14.62L88.18 14.62L88.18 5.11L91.56 4.82L91.56 18.19L88.18 18.48L88.18 16.75Q87.34 17.71 86.34 18.18Q85.34 18.65 84.43 18.65L84.43 18.65ZM98.50 18.65Q96.50 18.65 95.28 17.75Q94.06 16.85 93.70 15.24L93.70 15.24L96.31 14.38Q96.41 14.83 96.67 15.19L96.67 15.19Q97.22 15.98 98.28 15.98L98.28 15.98Q98.88 15.98 99.43 15.72Q99.98 15.46 99.98 14.90L99.98 14.90Q99.98 14.16 98.95 13.75L98.95 13.75L96.12 12.60Q94.99 12.12 94.39 11.16Q93.79 10.20 93.79 8.81L93.79 8.81Q93.79 7.51 94.43 6.58Q95.06 5.64 96.11 5.15Q97.15 4.66 98.35 4.66L98.35 4.66Q99.86 4.66 101.14 5.53Q102.41 6.41 102.84 7.92L102.84 7.92L100.06 8.78Q99.96 8.38 99.72 7.97L99.72 7.97Q99.19 7.15 98.38 7.15L98.38 7.15Q97.78 7.15 97.34 7.43Q96.91 7.70 96.91 8.23L96.91 8.23Q96.91 8.86 98.09 9.38L98.09 9.38L100.49 10.37Q101.76 10.97 102.48 11.88Q103.20 12.79 103.20 14.33L103.20 14.33Q103.20 15.72 102.53 16.69Q101.86 17.66 100.78 18.16Q99.70 18.65 98.50 18.65L98.50 18.65Z" transform="translate(12 17.164)"></path><line x1="127.2" y1="0" x2="127.2" y2="100%" stroke="#ff571f" stroke-width="3"></line><g fill="#2a2829" color="#2a2829" transform="translate(140.7, 12.001) scale(0.29)"><svg width="100.0" height="100.0" x="0.0" y="0.0" viewBox="0 0 100 100"><clipPath><path d="M 0,0 H 415.74802 V 415.74802 H 0 Z" style="" clip-rule="nonzero"></path></clipPath><path style="" d="m 69.819424,48.407328 v 3.14554 0 c 0,6.374232 -2.532148,12.487385 -7.039409,16.994646 -4.507268,4.507268 -10.620421,7.039416 -16.994646,7.039416 H 18.129464 c -2.38e-4,0 -4.25e-4,-1.88e-4 -4.25e-4,-4.32e-4 l 4.25e-4,-51.213236 v 0 c 0,-2.36e-4 1.87e-4,-4.28e-4 4.25e-4,-4.28e-4 l 27.65548,4.28e-4 v 0 c 13.273642,0 24.034055,10.760416 24.034055,24.034066 z" fill-opacity="0" stroke-width="0.72012126"></path><path style="color:#000000;font-style:normal;font-variant:normal;font-weight:normal;font-stretch:normal;font-size:medium;line-height:normal;font-family:sans-serif;font-variant-ligatures:normal;font-variant-position:normal;font-variant-caps:normal;font-variant-numeric:normal;font-variant-alternates:normal;font-feature-settings:normal;text-indent:0;text-align:start;text-decoration:none;text-decoration-line:none;text-decoration-style:solid;text-decoration-color:#000000;letter-spacing:normal;word-spacing:normal;text-transform:none;writing-mode:lr-tb;direction:ltr;text-orientation:mixed;dominant-baseline:auto;baseline-shift:baseline;text-anchor:start;white-space:normal;shape-padding:0;clip-rule:nonzero;display:inline;overflow:visible;visibility:visible;opacity:1;isolation:auto;mix-blend-mode:normal;color-interpolation:sRGB;color-interpolation-filters:linearRGB;solid-color:#000000;solid-opacity:1;vector-effect:none;fill:#000000;fill-opacity:1;fill-rule:evenodd;stroke:none;stroke-width:5.76097012;stroke-linecap:butt;stroke-linejoin:round;stroke-miterlimit:10;stroke-dasharray:none;stroke-dashoffset:0;stroke-opacity:1;color-rendering:auto;image-rendering:auto;shape-rendering:auto;text-rendering:auto;enable-background:accumulate" d="M 18.130859 21.492188 C 18.130802 21.492188 17.002003 21.722633 17.001953 21.722656 C 17.001903 21.722677 16.078168 22.34957 16.078125 22.349609 C 16.078089 22.349648 15.468772 23.267526 15.46875 23.267578 C 15.468729 23.267629 15.248047 24.372988 15.248047 24.373047 L 15.248047 34.554688 L 2.4746094 34.554688 L 2.4746094 40.316406 L 15.248047 40.316406 L 15.248047 59.644531 L 2.4746094 59.644531 L 2.4746094 65.40625 L 15.248047 65.40625 L 15.248047 75.585938 C 15.248047 75.585994 15.462869 76.677683 15.462891 76.677734 C 15.462912 76.677784 16.080035 77.611292 16.080078 77.611328 C 16.080114 77.611364 17.015575 78.24412 17.015625 78.244141 C 17.015683 78.244163 18.128849 78.466797 18.128906 78.466797 L 45.785156 78.466797 C 52.92222 78.466797 59.771684 75.630666 64.818359 70.583984 C 69.555928 65.846421 72.34217 59.522637 72.666016 52.861328 L 72.853516 52.861328 C 74.057774 56.2705 77.318387 58.746094 81.117188 58.746094 C 84.915988 58.746094 88.178044 56.270498 89.382812 52.861328 L 97.582031 52.861328 L 97.582031 47.099609 L 89.386719 47.099609 C 88.955748 45.863508 88.25884 44.72369 87.316406 43.78125 C 85.673206 42.138049 83.441018 41.214844 81.117188 41.214844 C 77.318388 41.214844 74.057774 43.690437 72.853516 47.099609 L 72.666016 47.099609 C 71.980518 32.873203 60.17706 21.494141 45.785156 21.494141 L 18.130859 21.492188 z M 21.009766 27.253906 L 45.785156 27.253906 C 57.502069 27.253906 66.9375 36.691282 66.9375 48.408203 L 66.9375 51.552734 C 66.9375 57.164121 64.710035 62.543872 60.742188 66.511719 C 56.774335 70.47958 51.396535 72.707031 45.785156 72.707031 L 21.009766 72.707031 L 21.009766 27.253906 z M 81.117188 46.974609 C 81.271507 46.974609 81.42286 46.992746 81.572266 47.019531 C 81.692679 47.038023 81.809177 47.066856 81.925781 47.099609 C 82.417534 47.237739 82.873974 47.487256 83.242188 47.855469 C 83.806558 48.419844 84.123047 49.182317 84.123047 49.980469 C 84.123047 51.384746 83.214894 52.512415 81.941406 52.861328 C 81.826918 52.892696 81.711909 52.919311 81.591797 52.9375 C 81.437774 52.964718 81.280974 52.984375 81.117188 52.984375 C 80.953401 52.984375 80.79661 52.964718 80.642578 52.9375 C 80.522492 52.919311 80.407415 52.892696 80.292969 52.861328 C 79.019943 52.512413 78.113281 51.384739 78.113281 49.980469 C 78.113281 48.57766 79.018136 47.450267 80.289062 47.099609 C 80.40416 47.067853 80.51981 47.039886 80.640625 47.021484 C 80.795285 46.993833 80.952682 46.974609 81.117188 46.974609 z "></path><path style="" d="m 69.819424,49.980101 h 27.76153" fill-opacity="0" stroke-width="0.72012126"></path><path style="" d="M 2.4755506,37.435625 H 18.125439" fill-opacity="0" stroke-width="0.72012126"></path><path style="" d="M 2.4755506,62.524571 H 18.125439" fill-opacity="0" stroke-width="0.72012126"></path></svg></g></svg>